<?xml version="1.0" encoding="utf-8"?>
<!-- Generator: Adobe Illustrator 21.0.0, SVG Export Plug-In . SVG Version: 6.00 Build 0)  -->
<svg version="1.1" id="Cross" xmlns="http://www.w3.org/2000/svg" xmlns:xlink="http://www.w3.org/1999/xlink" x="0px" y="0px"
	 viewBox="0 0 256 256" xml:space="preserve" fill="#F44336">
<g>
	<path d="M10,251.3c32.4-40.6,64.9-81.1,97.5-121.9C73.5,89.7,39.7,50.3,5.9,10.9c0.3-0.3,0.5-0.6,0.8-0.8
		c40.6,32.4,81.1,64.9,121.9,97.5c39.7-34,79.1-67.8,118.5-101.6c0.3,0.3,0.6,0.5,0.8,0.8c-32.4,40.6-64.9,81.1-97.5,121.9
		c34,39.7,67.8,79.1,101.6,118.5c-0.3,0.3-0.5,0.6-0.8,0.8c-40.6-32.4-81.1-64.9-121.9-97.5c-39.7,34-79.1,67.8-118.5,101.6
		C10.6,251.8,10.3,251.5,10,251.3z"/>
</g>
</svg>
