<?xml version="1.0" encoding="utf-8"?>
<!-- Generator: Adobe Illustrator 21.0.0, SVG Export Plug-In . SVG Version: 6.00 Build 0)  -->
<svg version="1.1" id="Capa_1" xmlns="http://www.w3.org/2000/svg" xmlns:xlink="http://www.w3.org/1999/xlink"
	 viewBox="0 0 512 512" xml:space="preserve" fill="#F44336">
<g>
	<path d="M97,252.5c0-70.3-0.1-140.6,0.1-210.9c0-8.9,0.7-17.9,1.9-26.8c0.9-7.3,2.3-8,9.7-8c2,0,4.1,0.2,6-0.1
		c15.1-2,28.5,2.7,41.8,9.5c68.2,35,134.3,73.7,200.1,112.9c11.3,6.7,22.9,13,33.9,20.2c7.3,4.8,14.1,10.4,20.4,16.3
		c9.1,8.6,9.1,23.1-0.1,32c-5,4.8-10.1,9.7-16,13.2c-64.5,38.3-128.9,76.6-193.7,114.2c-18.3,10.6-37.7,19.4-56.8,28.7
		c-3.2,1.6-2.8,3.8-2.8,6.2c0,32,0,64.1,0,96.1c0,9.5,0,19,0,28.6c0,9.2-5.2,16.9-13.3,20.2c-8.5,3.4-17.4,1-24.2-5.5
		c-4.9-4.6-6.1-10.1-6.3-16.2c-0.3-10.6-0.8-21.2-0.8-31.8C97,385,97,318.7,97,252.5z"/>
</g>
</svg>
