<?xml version="1.0" encoding="utf-8"?>
<!-- Generator: Adobe Illustrator 21.0.0, SVG Export Plug-In . SVG Version: 6.00 Build 0)  -->
<svg version="1.1" id="Flag" xmlns="http://www.w3.org/2000/svg" xmlns:xlink="http://www.w3.org/1999/xlink" x="0px" y="0px"
	 viewBox="0 0 512 512" xml:space="preserve" fill="#F44336">
<g>
	<path d="M419,294.9c-27.1,11.4-53.7,24.2-81.3,33.7c-25.6,8.7-51.9,5.3-77.4-4c-29.6-10.7-59.2-21.3-89.2-30.3
		c-12.1-3.6-25.6-2.5-39.5-3.7c0,17.3,0,32,0,46.7c0,47.4,0.1,95-0.1,142.4c0,5,0.1,11.5-2.6,14.9c-3.8,4.7-10.5,9.9-15.9,9.8
		c-5.9-0.2-12.9-5.2-16.9-10.1c-3-3.7-2.6-10.5-2.6-16.1c-0.1-147.7,0-295.3-0.2-443c0-13.3,3.1-23.5,16.9-27.8c1.6,0,3.2,0,4.8,0
		c3.1,1.6,8.1,2.4,9.2,4.9c6.5,15.5,19.8,10.9,31.3,11.9c4,0.2,8.1,0.4,11.9,1.6c30.5,10.1,61.3,19.9,91.6,30.8
		c24.3,8.7,49.2,13.1,73.9,5.8c25.4-7.5,49.7-18.6,74.5-28.2c4.1-1.6,7.9-3.4,11.9-5C419,117.6,419,206.3,419,294.9z"/>
</g>
</svg>
