<?xml version="1.0" encoding="utf-8"?>
<!-- Generator: Adobe Illustrator 21.0.0, SVG Export Plug-In . SVG Version: 6.00 Build 0)  -->
<svg version="1.1" id="Mine" xmlns="http://www.w3.org/2000/svg" xmlns:xlink="http://www.w3.org/1999/xlink" x="0px" y="0px"
	 viewBox="0 0 256 256" xml:space="preserve" fill="#FFFFFF">
<g>
	<path d="M19.5,192.2c8-10.9,15-20.7,22.3-30.4c2.1-2.7,2.7-5.1,1.8-8.6c-4.1-16-3.8-31.9,0.5-47.9c0.6-2.1,0-5.3-1.2-7.1
		C35.5,87.6,27.9,77.4,19.6,66c5.8,0.6,10.6,1,15.4,1.5c8.3,0.9,16.5,2,24.8,2.5c2.1,0.1,5-0.8,6.4-2.3C78,56,91.6,47.9,107.7,43.8
		c1.9-0.5,4-2.4,4.8-4.2c4.8-10.2,9.2-20.7,13.8-31c0.7-1.6,1.5-3.2,2.8-5.7c4.2,9.6,8.6,18.1,11.8,27.1c3,8.5,7.5,13.4,16.9,15.5
		c13.9,3.1,25.6,11,35.5,21.3c3,3.1,5.9,3.6,9.7,3.1c11.4-1.4,22.8-2.5,35.3-3.9c-3,4.2-5.4,7.7-7.9,11.1
		c-4.5,6.2-9.2,12.2-13.4,18.7c-1.2,1.9-1.7,5-1.1,7.1c5.3,18.1,5.6,36,0.2,54.1c-0.6,1.9,0.1,4.9,1.3,6.6
		c6.6,9.3,13.6,18.4,21.1,28.6c-9.1-0.9-17.2-1.1-25.1-2.6c-9.3-1.8-16.2-0.6-23.1,7.1c-10.6,11.7-24.9,18.1-40.5,21.2
		c-3.4,0.7-5.1,2.2-6.4,5.2c-4.4,10.4-9.1,20.7-14.1,31.8c-0.9-1.5-1.6-2.5-2.1-3.5c-4.2-9.6-8.5-19.1-12.6-28.8
		c-1.2-2.8-2.8-4.4-5.9-5.2C91,213.1,76,204.2,64,190.5c-2.6-3-5.4-2.6-8.5-2.3C44,189.5,32.4,190.8,19.5,192.2z"/>
</g>
</svg>
