<?xml version="1.0" encoding="utf-8"?>
<!-- Generator: Adobe Illustrator 21.0.0, SVG Export Plug-In . SVG Version: 6.00 Build 0)  -->
<svg version="1.1" id="Number3" xmlns="http://www.w3.org/2000/svg" xmlns:xlink="http://www.w3.org/1999/xlink"
	 viewBox="0 0 256 256" xml:space="preserve" fill="#CDDC39">
<g>
	<path d="M120,101.5c10.3,0,19.1-3,26.5-9c7.4-6,11.1-14.7,11.1-26c0-8.6-3-16-8.9-22.2c-5.9-6.2-13.9-9.3-24-9.3
		c-6.8,0-12.4,0.9-16.8,2.8c-4.4,1.9-7.9,4.4-10.5,7.5c-2.6,3.1-5,7.1-7.3,12.1C88,62.4,85.9,67,84,71.3c-1.1,2.3-3.1,4.2-6,5.5
		c-2.9,1.3-6.3,2-10,2c-4.5,0-8.6-1.8-12.3-5.4C51.9,69.8,50,65,50,58.9c0-5.8,1.8-11.9,5.3-18.3c3.5-6.4,8.7-12.5,15.4-18.3
		c6.8-5.8,15.2-10.5,25.2-14C106,4.8,117.2,3,129.6,3c10.8,0,20.7,1.5,29.6,4.4c8.9,3,16.7,7.2,23.3,12.8
		c6.6,5.6,11.6,12.1,14.9,19.4s5,15.3,5,23.8c0,11.2-2.4,20.7-7.3,28.7c-4.9,8-11.8,15.8-20.9,23.4c8.7,4.7,16,10,22,16.1
		c6,6,10.5,12.7,13.5,20c3,7.3,4.5,15.2,4.5,23.7c0,10.2-2,20-6.1,29.5c-4.1,9.5-10.1,17.9-18,25.4c-7.9,7.4-17.3,13.2-28.2,17.4
		c-10.9,4.2-22.9,6.3-36.1,6.3c-13.4,0-25.4-2.4-36-7.2c-10.6-4.8-19.3-10.8-26.2-18c-6.9-7.2-12.1-14.7-15.6-22.4
		c-3.5-7.7-5.3-14.1-5.3-19.1c0-6.5,2.1-11.7,6.3-15.7c4.2-4,9.4-5.9,15.7-5.9c3.1,0,6.1,0.9,9,2.8c2.9,1.8,4.8,4,5.7,6.6
		c5.8,15.5,12,27,18.7,34.6c6.6,7.5,16,11.3,28.1,11.3c6.9,0,13.6-1.7,20-5.1c6.4-3.4,11.7-8.5,15.9-15.2c4.2-6.7,6.3-14.5,6.3-23.3
		c0-13.1-3.6-23.3-10.7-30.7c-7.1-7.4-17.1-11.1-29.8-11.1c-2.2,0-5.7,0.2-10.4,0.7c-4.7,0.4-7.7,0.7-9,0.7
		c-6.1,0-10.9-1.5-14.2-4.6c-3.3-3.1-5-7.3-5-12.8c0-5.4,2-9.7,6-13c4-3.3,10-4.9,17.9-4.9H120z"/>
</g>
</svg>
