<?xml version="1.0" encoding="utf-8"?>
<!-- Generator: Adobe Illustrator 21.0.0, SVG Export Plug-In . SVG Version: 6.00 Build 0)  -->
<svg version="1.1" id="Number7" xmlns="http://www.w3.org/2000/svg" xmlns:xlink="http://www.w3.org/1999/xlink"
	 viewBox="0 0 256 256" xml:space="preserve" fill="#FF5722">
<g>
	<path d="M79.5,6.5h111.5c10.7,0,18.5,1.7,23.3,5c4.8,3.3,7.2,8.9,7.2,16.6c0,4.7-2.8,10.9-8.5,18.6c-5.6,7.7-12.1,16.2-19.3,25.5
		c-7.2,9.3-14.6,20.9-22.3,34.8c-7.6,13.8-14.7,30.8-21,50.7c-2.7,8.8-4.6,16.1-5.7,21.9c-1.1,5.8-2.3,13.3-3.7,22.6
		c-1.3,9.3-2.5,16.4-3.5,21.3c-2.3,11.4-5.7,19.3-10,23.7c-4.3,4.4-10,6.6-17.2,6.6c-6.8,0-12.3-2.4-16.4-7.1
		c-4.1-4.7-6.2-11.8-6.2-21c0-7.1,1.5-16.9,4.5-29.1c3-12.3,7.9-27,14.7-44.1c6.8-17.1,15.3-34.7,25.5-52.8
		c10.2-18,22.4-36,36.4-53.8H79.5c-9.4,0-16.4-1.7-21-5.1c-4.6-3.4-7-8.7-7-16c0-7.7,2.5-12.7,7.4-14.9C63.8,7.6,70.7,6.5,79.5,6.5z
		"/>
</g>
</svg>
