<?xml version="1.0" encoding="utf-8"?>
<!-- Generator: Adobe Illustrator 21.0.0, SVG Export Plug-In . SVG Version: 6.00 Build 0)  -->
<svg version="1.1" id="Number6" xmlns="http://www.w3.org/2000/svg" xmlns:xlink="http://www.w3.org/1999/xlink"
	 viewBox="0 0 256 256" xml:space="preserve" fill="#FF9800">
<g>
	<path d="M88.2,116.9c7.6-9,15.9-15.7,24.8-20.1c8.9-4.4,18.9-6.5,30-6.5c10.6,0,20.4,2,29.4,5.9c9,4,16.9,9.6,23.6,16.9
		c6.8,7.3,12,15.9,15.7,25.9c3.7,9.9,5.5,20.3,5.5,31.2c0,15.7-3.6,30-10.8,42.9c-7.2,12.8-17.3,22.9-30.1,30.1
		c-12.9,7.2-27.5,10.8-43.8,10.8c-18.8,0-34.9-4.6-48.6-13.7c-13.6-9.2-24-22.7-31.2-40.6c-7.2-17.9-10.8-39.8-10.8-65.7
		c0-21.1,2.2-40,6.5-56.6C52.7,60.6,59,46.8,67.1,35.8c8.1-10.9,18-19.2,29.6-24.8c11.6-5.6,24.8-8.4,39.7-8.4
		c14.3,0,26.9,2.8,37.8,8.4c10.9,5.6,19.1,12.5,24.6,20.8c5.5,8.3,8.3,16.2,8.3,23.8c0,4.6-1.7,8.7-5.2,12.5
		c-3.5,3.7-7.9,5.6-13.2,5.6c-4.7,0-9-1.5-13.1-4.4c-4-3-7-7.1-8.9-12.3c-2.6-6.7-6.6-12.1-12.2-16.2c-5.6-4.1-12.1-6.1-19.4-6.1
		c-5.9,0-11.8,1.7-17.7,5.1c-5.9,3.4-10.8,8-14.8,13.8C94.5,65.4,89.7,86.5,88.2,116.9z M133.4,220.9c11.3,0,20.6-4.6,28-13.8
		c7.4-9.2,11.1-21.3,11.1-36.3c0-10.2-1.7-18.9-5.2-26.2c-3.5-7.3-8.2-12.9-14.2-16.7c-6-3.9-12.7-5.8-19.9-5.8
		c-6.9,0-13.5,1.8-19.8,5.5c-6.3,3.7-11.4,9-15.2,16c-3.9,7-5.8,15.2-5.8,24.5c0,15.1,3.9,27.6,11.7,37.7
		C111.8,215.9,121.6,220.9,133.4,220.9z"/>
</g>
</svg>
