<?xml version="1.0" encoding="utf-8"?>
<!-- Generator: Adobe Illustrator 21.0.0, SVG Export Plug-In . SVG Version: 6.00 Build 0)  -->
<svg version="1.1" id="Number2" xmlns="http://www.w3.org/2000/svg" xmlns:xlink="http://www.w3.org/1999/xlink"
	 viewBox="0 0 256 256" xml:space="preserve" fill="#4CAF50">
<g>
	<path d="M102.9,211.7h87.4c8.7,0,15.4,1.8,19.9,5.4c4.6,3.6,6.9,8.4,6.9,14.6c0,5.5-1.8,10.1-5.4,13.9c-3.6,3.8-9.1,5.7-16.5,5.7
		H71.9c-8.4,0-14.9-2.3-19.6-7c-4.7-4.6-7-10.1-7-16.3c0-4,1.5-9.3,4.5-16c3-6.6,6.3-11.9,9.9-15.7c14.8-15.4,28.2-28.6,40.2-39.6
		c11.9-11,20.5-18.2,25.6-21.7c9.2-6.5,16.8-13,22.9-19.5c6.1-6.5,10.7-13.2,13.9-20.1c3.2-6.9,4.8-13.6,4.8-20.2
		c0-7.1-1.7-13.5-5.1-19.2c-3.4-5.6-8-10-13.9-13.1c-5.9-3.1-12.3-4.7-19.2-4.7c-14.6,0-26.1,6.4-34.5,19.3c-1.1,1.7-3,6.3-5.6,13.7
		c-2.6,7.5-5.6,13.2-8.9,17.3c-3.3,4-8.1,6-14.5,6c-5.6,0-10.2-1.8-13.9-5.5S46,80.2,46,73.9c0-7.7,1.7-15.7,5.2-24.1
		c3.5-8.4,8.6-16,15.5-22.8c6.9-6.8,15.6-12.3,26.1-16.5c10.6-4.2,22.9-6.3,37.1-6.3c17.1,0,31.7,2.7,43.7,8
		c7.8,3.6,14.7,8.5,20.6,14.7c5.9,6.3,10.5,13.5,13.8,21.7c3.3,8.2,4.9,16.7,4.9,25.5c0,13.8-3.4,26.4-10.3,37.8
		c-6.9,11.3-13.9,20.2-21,26.6c-7.1,6.4-19.1,16.5-35.9,30.2c-16.8,13.7-28.3,24.4-34.6,32C108.4,203.8,105.7,207.5,102.9,211.7z"/>
</g>
</svg>
