<?xml version="1.0" encoding="utf-8"?>
<!-- Generator: Adobe Illustrator 21.0.0, SVG Export Plug-In . SVG Version: 6.00 Build 0)  -->
<svg version="1.1" id="Number8" xmlns="http://www.w3.org/2000/svg" xmlns:xlink="http://www.w3.org/1999/xlink"
	 viewBox="0 0 256 256" xml:space="preserve" fill="#F44336">
<g>
	<path d="M49,66.5c0-11.2,3-21.7,9.1-31.6c6.1-9.9,15-17.8,26.8-23.7c11.8-5.9,25.5-8.9,41.3-8.9c13.3,0,25,1.7,35,5.2
		c10,3.5,18.4,8.2,25.1,14.3c6.7,6.1,11.7,13,14.9,20.6c3.2,7.6,4.9,15.8,4.9,24.4c0,10.9-2.8,20.7-8.5,29.3
		c-5.6,8.6-14,15.6-25.2,21.1c9.5,3.7,17.4,8.5,23.6,14.5c6.3,6,11,12.9,14.2,20.8c3.2,7.9,4.8,16.6,4.8,26.2
		c0,14.1-3.4,26.8-10.2,38.3c-6.8,11.4-16.8,20.4-30,26.9c-13.2,6.5-28.7,9.7-46.6,9.7c-18.5,0-34.4-3.2-47.6-9.7
		c-13.2-6.5-23.1-15.4-29.8-26.7c-6.7-11.3-10-24-10-38.1c0-30,14.2-50.6,42.5-61.8C60.5,106.5,49,89.6,49,66.5z M169.1,177.4
		c0-8.7-1.8-16.3-5.4-22.8c-3.6-6.5-8.6-11.4-15.1-14.9c-6.5-3.5-13.7-5.2-21.8-5.2c-11.4,0-20.9,3.8-28.6,11.4
		c-7.7,7.6-11.6,18.2-11.6,31.8c0,8.7,1.8,16.4,5.4,23c3.6,6.6,8.6,11.8,14.8,15.4c6.3,3.6,13.2,5.4,20.9,5.4
		c7.8,0,14.8-1.8,21.1-5.5c6.3-3.7,11.2-8.9,14.7-15.6C167.3,193.8,169.1,186.1,169.1,177.4z M127.2,34.3c-10.5,0-19,3.3-25.4,9.8
		c-6.4,6.5-9.6,14.9-9.6,25.2c0,9.5,3.3,17.4,9.9,23.7c6.6,6.3,15.1,9.5,25.5,9.5c5.2,0,10-0.8,14.3-2.5c4.3-1.7,8-4,11.1-7
		c3.1-3,5.4-6.5,7.1-10.6c1.7-4.1,2.5-8.6,2.5-13.5c0-6.6-1.5-12.5-4.4-17.8c-3-5.2-7.1-9.4-12.5-12.4S134.2,34.3,127.2,34.3z"/>
</g>
</svg>
