<?xml version="1.0" encoding="utf-8"?>
<!-- Generator: Adobe Illustrator 21.0.0, SVG Export Plug-In . SVG Version: 6.00 Build 0)  -->
<svg version="1.1" id="Number4" xmlns="http://www.w3.org/2000/svg" xmlns:xlink="http://www.w3.org/1999/xlink"
	 viewBox="0 0 256 256" xml:space="preserve" fill="#FFEB3B">
<g>
	<path d="M146.2,228.4v-31.2H62.1c-10.6,0-18.6-2.4-23.9-7.2c-5.3-4.8-8-11.3-8-19.6c0-2.1,0.4-4.3,1.2-6.4c0.8-2.2,2-4.5,3.5-6.9
		c1.6-2.4,3.2-4.7,4.9-7c1.7-2.2,3.7-5,6.2-8.2l88.8-118.7c5.8-7.8,10.6-13.5,14.3-17c3.7-3.5,8.2-5.3,13.5-5.3
		c17,0,25.5,9.7,25.5,29.1v129.6h7.2c8.6,0,15.5,1.2,20.7,3.5c5.2,2.3,7.8,7.5,7.8,15.4c0,6.5-2.1,11.2-6.4,14.2
		c-4.2,3-10.6,4.4-19.1,4.4H188v31.2c0,8.6-1.9,15-5.7,19.2c-3.8,4.2-8.9,6.3-15.2,6.3c-6.3,0-11.3-2.2-15.2-6.4
		C148.1,243.1,146.2,236.8,146.2,228.4z M74.2,159.8h72V62.5L74.2,159.8z"/>
</g>
</svg>
