<?xml version="1.0" encoding="utf-8"?>
<!-- Generator: Adobe Illustrator 21.0.0, SVG Export Plug-In . SVG Version: 6.00 Build 0)  -->
<svg version="1.1" id="Number5" xmlns="http://www.w3.org/2000/svg" xmlns:xlink="http://www.w3.org/1999/xlink"
	 viewBox="0 0 256 256" xml:space="preserve" fill="#FFC107">
<g>
	<path d="M184.9,45.5h-79.6l-9.5,54.3c15.9-8.5,30.5-12.7,43.9-12.7c10.7,0,20.7,2,30.1,6c9.3,4,17.5,9.6,24.5,16.7
		c7,7.1,12.6,15.5,16.6,25.2c4,9.7,6,20.2,6,31.3c0,16.2-3.6,30.9-10.9,44.2c-7.3,13.3-17.7,23.8-31.4,31.7
		c-13.7,7.8-29.5,11.7-47.3,11.7c-20,0-36.2-3.7-48.7-11.1c-12.5-7.4-21.3-15.8-26.5-25.4c-5.2-9.5-7.8-17.9-7.8-25
		c0-4.4,1.8-8.5,5.4-12.4c3.6-3.9,8.2-5.9,13.6-5.9c9.4,0,16.4,5.4,20.9,16.2c4.5,9.9,10.5,17.7,18.1,23.2
		c7.6,5.5,16.1,8.3,25.5,8.3c8.6,0,16.1-2.2,22.6-6.7c6.5-4.5,11.5-10.6,15-18.4c3.5-7.8,5.3-16.7,5.3-26.6
		c0-10.7-1.9-19.9-5.7-27.5c-3.8-7.6-8.9-13.3-15.2-17c-6.4-3.7-13.5-5.6-21.3-5.6c-9.6,0-16.5,1.2-20.6,3.5
		c-4.1,2.3-10.1,6.4-17.8,12.3c-7.8,5.9-14.2,8.8-19.2,8.8c-5.5,0-10.3-2-14.6-5.9c-4.2-4-6.4-8.5-6.4-13.5c0-0.6,0.6-4.4,1.8-11.4
		l14.1-80.2c1.6-9.6,4.5-16.6,8.7-20.9c4.2-4.4,11.2-6.5,20.8-6.5h88.4c17.4,0,26.1,6.6,26.1,19.9c0,5.8-2.1,10.5-6.4,14.1
		C199.4,43.8,193.1,45.5,184.9,45.5z"/>
</g>
</svg>
