<?xml version="1.0" encoding="utf-8"?>
<!-- Generator: Adobe Illustrator 21.0.0, SVG Export Plug-In . SVG Version: 6.00 Build 0)  -->
<svg version="1.1" id="Number1" xmlns="http://www.w3.org/2000/svg" xmlns:xlink="http://www.w3.org/1999/xlink"
	 viewBox="0 0 256 256" xml:space="preserve" fill="#3F51B5">
<g>
	<path d="M122.9,226.8V74.4C94.5,96.1,75.4,107,65.6,107c-4.7,0-8.9-1.9-12.5-5.6c-3.6-3.7-5.4-8.1-5.4-13c0-5.7,1.8-9.9,5.4-12.6
		c3.6-2.7,9.9-6.1,18.9-10.4c13.5-6.4,24.3-13.1,32.4-20.1c8.1-7,15.3-14.9,21.5-23.6c6.3-8.7,10.3-14.1,12.2-16.1
		c1.9-2,5.5-3,10.7-3c5.9,0,10.7,2.3,14.2,6.9c3.6,4.6,5.4,10.9,5.4,18.9v191.8c0,22.4-7.6,33.7-22.9,33.7c-6.8,0-12.3-2.3-16.4-6.9
		C125,242.4,122.9,235.7,122.9,226.8z"/>
</g>
</svg>
