<?xml version="1.0" encoding="utf-8"?>
<!-- Generator: Adobe Illustrator 21.0.0, SVG Export Plug-In . SVG Version: 6.00 Build 0)  -->
<svg version="1.1" id="Capa_1" xmlns="http://www.w3.org/2000/svg" xmlns:xlink="http://www.w3.org/1999/xlink" x="0px" y="0px"
	 viewBox="0 0 256 256" xml:space="preserve" fill="#FFFFFF">
<g>
	<path d="M45.5,71.1c0-10.6,3.4-21.4,10.2-32.2C62.5,28,72.5,19,85.5,11.8c13.1-7.1,28.3-10.7,45.7-10.7c16.2,0,30.5,3,42.9,9
		c12.4,6,22,14.1,28.7,24.4c6.8,10.3,10.1,21.4,10.1,33.5c0,9.5-1.9,17.8-5.8,25c-3.9,7.1-8.4,13.3-13.7,18.5
		c-5.3,5.2-14.8,13.9-28.6,26.2c-3.8,3.5-6.8,6.5-9.1,9.1c-2.3,2.6-4,5-5.1,7.2c-1.1,2.2-2,4.4-2.6,6.5c-0.6,2.2-1.5,6-2.8,11.5
		c-2.1,11.6-8.8,17.4-19.9,17.4c-5.8,0-10.7-1.9-14.7-5.7c-4-3.8-5.9-9.4-5.9-16.9c0-9.4,1.4-17.5,4.4-24.4
		c2.9-6.9,6.8-12.9,11.6-18.1c4.8-5.2,11.3-11.4,19.4-18.5c7.1-6.3,12.3-11,15.5-14.2c3.2-3.2,5.9-6.7,8-10.6
		c2.2-3.9,3.3-8.1,3.3-12.7c0-8.9-3.3-16.5-10-22.6c-6.6-6.1-15.2-9.2-25.7-9.2c-12.3,0-21.3,3.1-27.1,9.3
		c-5.8,6.2-10.7,15.3-14.7,27.4C85.6,85.7,78.4,92,67.8,92c-6.3,0-11.5-2.2-15.8-6.6C47.6,81,45.5,76.3,45.5,71.1z M127.2,254.7
		c-6.8,0-12.8-2.2-17.8-6.6c-5.1-4.4-7.6-10.6-7.6-18.5c0-7,2.5-13,7.4-17.8c4.9-4.8,10.9-7.2,18.1-7.2c7,0,13,2.4,17.8,7.2
		c4.8,4.8,7.2,10.7,7.2,17.8c0,7.8-2.5,14-7.5,18.4S133.8,254.7,127.2,254.7z"/>
</g>
</svg>
