<?xml version="1.0" encoding="utf-8"?>
<!-- Generator: Adobe Illustrator 21.0.0, SVG Export Plug-In . SVG Version: 6.00 Build 0)  -->
<svg version="1.1" id="ArrowMenuPanel" xmlns="http://www.w3.org/2000/svg" xmlns:xlink="http://www.w3.org/1999/xlink" x="0px" y="0px"
	 viewBox="0 0 180 512" xml:space="preserve" fill="#2196F3">
<g>
	<path d="M3.6,4.1c16-0.7,33.2-1.5,50.3-2.4c3.7-0.2,3.3,2.7,3.9,4.7c8.9,25.9,16.8,52.3,26.9,77.7C108,143.1,138,198.5,176.5,249
		c0.8,1,1.5,2.2,2.3,3.4c-26.6,33-47.5,69.2-65.7,107.1c-23,47.8-41.7,97.2-54.2,148.8c-0.4,1.5-2.2,3.8-3.3,3.7
		c-16.6-0.3-33.3-0.9-50.2-1.5C5.2,508.8,5,507.4,5,506C5,354.4,5.1,202.8,5,51.2C5,35.8,4.1,20.3,3.6,4.1z"/>
</g>
</svg>
