<?xml version="1.0" encoding="iso-8859-1"?>
<!-- Generator: Adobe Illustrator 19.0.0, SVG Export Plug-In . SVG Version: 6.00 Build 0)  -->
<svg version="1.1" id="Layer_1" xmlns="http://www.w3.org/2000/svg" xmlns:xlink="http://www.w3.org/1999/xlink" x="0px" y="0px"
	 viewBox="0 0 512 512" style="enable-background:new 0 0 512 512;" xml:space="preserve">
<path style="fill:#FF6464;" d="M425.797,467.737l-40.17,4.791l-24.234,32.392c-7.593,10.15-23.09,9.228-29.427-1.749
	L212.941,297.012l107.029-61.793l119.026,206.161C445.334,452.355,438.383,466.237,425.797,467.737z"/>
<path style="fill:#D2555A;" d="M372.386,449.593L372.386,449.593c-4.222,2.438-9.621,0.991-12.059-3.231l-88.276-152.898
	c-2.438-4.222-0.991-9.621,3.231-12.058l0,0c4.222-2.438,9.621-0.991,12.058,3.231l88.276,152.898
	C378.055,441.757,376.608,447.156,372.386,449.593z"/>
<path style="fill:#FF6464;" d="M86.202,467.737l40.17,4.791l24.234,32.392c7.593,10.15,23.09,9.228,29.427-1.749L299.06,297.012
	l-107.029-61.793L73.004,441.379C66.666,452.355,73.617,466.237,86.202,467.737z"/>
<g>
	<path style="fill:#D2555A;" d="M398.597,371.407l-78.628-136.189H192.03l-78.628,136.189
		c31.516,26.718,70.615,44.719,113.628,50.364L256,371.592l28.97,50.178C327.982,416.127,367.083,398.125,398.597,371.407z"/>
	<path style="fill:#D2555A;" d="M139.614,449.593L139.614,449.593c4.222,2.438,9.621,0.991,12.058-3.231l88.276-152.898
		c2.438-4.222,0.991-9.621-3.231-12.058l0,0c-4.222-2.438-9.621-0.991-12.058,3.231l-88.276,152.898
		C133.945,441.757,135.392,447.156,139.614,449.593z"/>
</g>
<circle style="fill:#FFD782;" cx="256" cy="203.034" r="203.034"/>
<g>
	<path style="fill:#FFC36E;" d="M335.448,326.621c-107.257,0-194.207-86.95-194.207-194.207c0-44.491,14.995-85.46,40.161-118.206
		C106.194,43.947,52.965,117.25,52.965,203.034c0,112.132,90.901,203.034,203.034,203.034c77.304,0,144.505-43.21,178.802-106.787
		C405.729,316.628,371.762,326.621,335.448,326.621z"/>
	<path style="fill:#FFC36E;" d="M256,388.414c-102.216,0-185.379-83.164-185.379-185.379S153.784,17.655,256,17.655
		s185.379,83.164,185.379,185.379S358.216,388.414,256,388.414z M256,35.31c-92.483,0-167.724,75.242-167.724,167.724
		S163.518,370.759,256,370.759s167.724-75.242,167.724-167.724S348.483,35.31,256,35.31z"/>
</g>
<circle style="fill:#FFE3A8;" cx="256" cy="203.034" r="150.069"/>
<path style="fill:#FFD782;" d="M335.448,326.621c-107.257,0-194.207-86.95-194.207-194.207c0-9.602,0.725-19.033,2.07-28.262
	c-23.202,26.42-37.38,60.957-37.38,98.882c0,82.881,67.188,150.069,150.069,150.069c31.68,0,61.024-9.873,85.242-26.63
	C339.313,326.53,337.391,326.621,335.448,326.621z"/>
<path style="fill:#E1B464;" d="M373.029,322.953c-30.248,29.526-71.522,47.806-117.03,47.806
	c-92.483,0-167.724-75.242-167.724-167.724c0-52.584,24.367-99.541,62.355-130.317c3.348-10.371,7.552-20.351,12.515-29.879
	c-55.222,32.139-92.525,91.831-92.525,160.196c0,102.216,83.164,185.379,185.379,185.379c60.527,0,114.207-29.293,148.062-74.303
	C394.082,317.882,383.716,320.857,373.029,322.953z"/>
<g>
	<path style="fill:#FFFFFF;" d="M384.299,89.878c-18.099-4.126-32.345-18.374-36.471-36.471c-0.311-1.363-2.115-1.363-2.425,0
		c-4.126,18.099-18.374,32.345-36.471,36.471c-1.363,0.311-1.363,2.115,0,2.425c18.099,4.126,32.345,18.372,36.471,36.471
		c0.311,1.363,2.115,1.363,2.425,0c4.126-18.099,18.374-32.345,36.471-36.471C385.662,91.993,385.662,90.189,384.299,89.878z"/>
	<path style="fill:#FFFFFF;" d="M321.578,142.345c-11.017-2.854-19.691-11.527-22.543-22.543c-0.287-1.107-1.719-1.107-2.006,0
		c-2.854,11.017-11.527,19.691-22.543,22.543c-1.107,0.287-1.107,1.719,0,2.006c11.017,2.854,19.691,11.527,22.543,22.543
		c0.287,1.107,1.719,1.107,2.006,0c2.854-11.017,11.527-19.691,22.543-22.543C322.686,144.064,322.686,142.632,321.578,142.345z"/>
</g>
<g>
</g>
<g>
</g>
<g>
</g>
<g>
</g>
<g>
</g>
<g>
</g>
<g>
</g>
<g>
</g>
<g>
</g>
<g>
</g>
<g>
</g>
<g>
</g>
<g>
</g>
<g>
</g>
<g>
</g>
</svg>
