<?xml version="1.0" encoding="iso-8859-1"?>
<!-- Generator: Adobe Illustrator 19.0.0, SVG Export Plug-In . SVG Version: 6.00 Build 0)  -->
<svg version="1.1" id="Capa_1" xmlns="http://www.w3.org/2000/svg" xmlns:xlink="http://www.w3.org/1999/xlink" x="0px" y="0px"
	 viewBox="0 0 57 57" style="enable-background:new 0 0 57 57;" xml:space="preserve">
<path style="fill:#F2E377;" d="M28.5,57C17.693,57,8.9,48.207,8.9,37.4s8.793-19.6,19.6-19.6s19.6,8.793,19.6,19.6
	S39.307,57,28.5,57z"/>
<circle style="fill:#F3D55B;" cx="28.5" cy="37.4" r="15.12"/>
<polygon style="fill:#F0C419;" points="28.491,26.305 31.764,32.937 39.082,34 33.787,39.162 35.037,46.451 28.491,43.009 
	21.945,46.451 23.196,39.162 17.9,34 25.218,32.937 "/>
<path style="fill:#546A79;" d="M28.5,17.8c2.201,0,4.311,0.381,6.288,1.054L46.1,0h-10L25.244,18.093
	C26.305,17.915,27.389,17.8,28.5,17.8z"/>
<path style="fill:#38454F;" d="M25.244,18.093L28.6,12.5L21.1,0h-10l11.276,18.793C23.303,18.487,24.262,18.259,25.244,18.093z"/>
<g>
</g>
<g>
</g>
<g>
</g>
<g>
</g>
<g>
</g>
<g>
</g>
<g>
</g>
<g>
</g>
<g>
</g>
<g>
</g>
<g>
</g>
<g>
</g>
<g>
</g>
<g>
</g>
<g>
</g>
</svg>
