<?xml version="1.0" encoding="iso-8859-1"?>
<!-- Generator: Adobe Illustrator 19.0.0, SVG Export Plug-In . SVG Version: 6.00 Build 0)  -->
<svg version="1.1" id="Capa_1" xmlns="http://www.w3.org/2000/svg" xmlns:xlink="http://www.w3.org/1999/xlink" x="0px" y="0px"
	 viewBox="0 0 58 58" style="enable-background:new 0 0 58 58;" xml:space="preserve">
<path style="fill:#F0C419;" d="M29.048,34L29.048,34c-8.008,0-14.5-6.492-14.5-14.5V1.128C14.548,0.505,15.053,0,15.676,0h26.744
	c0.623,0,1.128,0.505,1.128,1.128V19.5C43.548,27.508,37.056,34,29.048,34z"/>
<path style="fill:#F0C419;" d="M41.548,58h-25v0c0-3.314,2.686-6,6-6h13C38.862,52,41.548,54.686,41.548,58L41.548,58z"/>
<path style="fill:#F29C1F;" d="M32.548,38.257v-4.701C31.425,33.836,30.257,34,29.048,34s-2.377-0.164-3.5-0.443v4.701
	c-1.221,1.009-2,2.535-2,4.243s0.779,3.234,2,4.243V52h7v-5.257c1.221-1.009,2-2.535,2-4.243S33.77,39.266,32.548,38.257z"/>
<polygon style="fill:#F3D55B;" points="29.157,4.565 32.745,11.834 40.767,13 34.962,18.658 36.332,26.647 29.157,22.875 
	21.983,26.647 23.353,18.658 17.548,13 25.57,11.834 "/>
<path style="fill:#F29C1F;" d="M14.548,19.5V2.228c-1.614-0.794-3.216-1.197-4.782-1.197c-3.741,0-5.915,2.31-5.935,2.333
	c-3.572,3.978-3.081,10.35,1.104,14.212l14.62,13.191v-0.322C16.493,27.785,14.548,23.873,14.548,19.5z M6.284,16.098
	c-3.377-3.117-3.81-8.23-0.982-11.379c0.017-0.017,1.671-1.688,4.465-1.688c1.526,0,3.129,0.491,4.769,1.46V19.5
	c0,1.617,0.247,3.195,0.728,4.699L6.284,16.098z"/>
<path style="fill:#F29C1F;" d="M54.171,3.435c-0.021-0.023-2.178-2.337-5.938-2.337c-1.534,0-3.103,0.386-4.685,1.149v2.268
	c1.611-0.936,3.184-1.417,4.685-1.417c2.794,0,4.445,1.669,4.446,1.669c2.845,3.168,2.413,8.282-0.955,11.391l-8.987,8.109
	c0.008-0.025,0.013-0.051,0.021-0.076c-0.852,2.488-2.354,4.671-4.314,6.342v0.301l14.629-13.199
	C57.248,13.779,57.739,7.408,54.171,3.435z"/>
<g>
</g>
<g>
</g>
<g>
</g>
<g>
</g>
<g>
</g>
<g>
</g>
<g>
</g>
<g>
</g>
<g>
</g>
<g>
</g>
<g>
</g>
<g>
</g>
<g>
</g>
<g>
</g>
<g>
</g>
</svg>
